<?xml version="1.0" encoding="UTF-8" standalone="no"?>
<!DOCTYPE svg PUBLIC "-//W3C//DTD SVG 1.1//EN" "http://www.w3.org/Graphics/SVG/1.1/DTD/svg11.dtd">
<!-- Created with Vectornator (http://vectornator.io/) -->
<svg height="1080.0px" stroke-miterlimit="10" style="fill-rule:nonzero;clip-rule:evenodd;stroke-linecap:round;stroke-linejoin:round;" version="1.1" viewBox="0 0 1920 1080" width="1920.0px" xml:space="preserve" xmlns="http://www.w3.org/2000/svg" xmlns:xlink="http://www.w3.org/1999/xlink">
<defs>
<filter color-interpolation-filters="sRGB" filterUnits="userSpaceOnUse" height="538.079" id="Filter" width="1830" x="36.9561" y="256.797">
<feComponentTransfer in="SourceGraphic" result="Alpha">
<feFuncA slope="0.976744" type="linear"/>
</feComponentTransfer>
<feDropShadow dx="8.54042" dy="-28.3275" flood-color="#000000" flood-opacity="0.333" in="Alpha" result="Shadow" stdDeviation="0"/>
</filter>
<radialGradient cx="0" cy="0" gradientTransform="matrix(630.589 0 -108.935 630.589 80.3432 536.277)" gradientUnits="userSpaceOnUse" id="RadialGradient" r="1">
<stop offset="0" stop-color="#ffffff"/>
<stop offset="1" stop-color="#377ce1"/>
</radialGradient>
<radialGradient cx="0" cy="0" gradientTransform="matrix(357.791 0 -61.8089 357.791 554.274 581.574)" gradientUnits="userSpaceOnUse" id="RadialGradient_2" r="1">
<stop offset="0" stop-color="#ffffff"/>
<stop offset="1" stop-color="#377ce1"/>
</radialGradient>
<radialGradient cx="0" cy="0" gradientTransform="matrix(412.46 0 -71.2532 412.46 823.634 577.851)" gradientUnits="userSpaceOnUse" id="RadialGradient_3" r="1">
<stop offset="0" stop-color="#ffffff"/>
<stop offset="1" stop-color="#377ce1"/>
</radialGradient>
<radialGradient cx="0" cy="0" gradientTransform="matrix(414.568 0 -71.6173 414.568 1139.43 540)" gradientUnits="userSpaceOnUse" id="RadialGradient_4" r="1">
<stop offset="0" stop-color="#ffffff"/>
<stop offset="1" stop-color="#377ce1"/>
</radialGradient>
<radialGradient cx="0" cy="0" gradientTransform="matrix(362.362 0 -62.5987 362.362 1470.76 581.574)" gradientUnits="userSpaceOnUse" id="RadialGradient_5" r="1">
<stop offset="0" stop-color="#ffffff"/>
<stop offset="1" stop-color="#377ce1"/>
</radialGradient>
<filter color-interpolation-filters="sRGB" filterUnits="userSpaceOnUse" height="186.13" id="Filter_2" width="161.096" x="1728.96" y="613.788">
<feGaussianBlur in="SourceGraphic" result="Blur" stdDeviation="1.40939"/>
</filter>
</defs>
<g id="图层-1">
<g filter="url(#Filter)">
<path d="M754.087 285.124C754.185 285.124 754.244 285.235 754.188 285.316L410.352 787.376C410.329 787.41 410.292 787.43 410.251 787.43L258.431 787.43C289.114 710.279 327.523 622.58 373.659 524.332C344.604 566.32 282.71 654.019 187.975 787.43L37.1488 787.43C37.0591 787.43 36.9999 787.336 37.038 787.255L272.643 285.195C272.664 285.152 272.707 285.124 272.754 285.124L390.578 285.124C390.669 285.124 390.728 285.221 390.687 285.302L301.987 460.419L217.068 629.509C272.009 542.017 349.451 427.222 449.394 285.124L575.869 285.124C569.123 299.81 541.666 355.035 493.498 450.801L396.618 641.609C473.453 520.195 553.32 401.367 636.218 285.124L754.087 285.124Z" fill="url(#RadialGradient)" fill-rule="nonzero" opacity="1" stroke="none"/>
<path d="M863.99 588.804C863.968 588.842 863.928 588.865 863.884 588.865L713.007 588.865C712.963 588.865 712.923 588.889 712.901 588.927L661.527 677.909C650.779 696.524 645.104 708.521 644.502 713.899C643.9 719.277 647.16 721.965 654.282 721.965C663.137 721.965 671.117 718.398 678.221 711.262C685.324 704.126 694.787 690.319 706.61 669.842L737.922 615.609C737.943 615.571 737.984 615.547 738.028 615.547L848.338 615.547C848.432 615.547 848.491 615.65 848.444 615.731L830.996 645.953C816.307 671.394 803.53 690.94 792.665 704.591C781.799 718.242 766.402 732.824 746.473 748.337C726.544 763.85 705.919 775.485 684.596 783.241C663.274 790.998 639.908 794.876 614.498 794.876C589.857 794.876 570.314 791.049 555.867 783.396C541.42 775.743 532.802 765.246 530.013 751.905C527.224 738.564 528.436 723.879 533.648 707.849C538.86 691.819 550.303 668.498 567.977 637.886L637.299 517.817C658.078 481.827 678.992 453.438 700.041 432.651C721.09 411.864 745.108 395.938 772.095 384.872C799.082 373.806 825.954 368.273 852.712 368.273C885.437 368.273 908.585 374.943 922.154 388.285C935.723 401.626 940.432 419.31 936.28 441.338C932.128 463.367 918.529 494.341 895.481 534.26L863.99 588.804ZM785.63 521.85C785.674 521.85 785.714 521.827 785.736 521.789L803.076 491.755C815.376 470.451 822.258 456.696 823.723 450.491C825.188 444.286 822.648 441.183 816.103 441.183C808.018 441.183 801.491 443.82 796.52 449.095C791.55 454.369 782.378 468.589 769.003 491.755L751.734 521.666C751.686 521.748 751.745 521.85 751.84 521.85L785.63 521.85Z" fill="url(#RadialGradient_2)" fill-rule="nonzero" opacity="1" stroke="none"/>
<path d="M1143.59 375.719C1143.68 375.719 1143.74 375.825 1143.69 375.907L1119.93 413.57C1137.12 398.471 1154.01 387.147 1170.59 379.597C1187.17 372.048 1203.45 368.273 1219.43 368.273C1239.45 368.273 1252.89 373.34 1259.74 383.476C1266.59 393.611 1267.4 406.383 1262.16 421.792C1256.92 437.202 1243.92 462.901 1223.14 498.891L1056.58 787.368C1056.56 787.406 1056.52 787.43 1056.48 787.43L940.104 787.43C940.01 787.43 939.951 787.328 939.998 787.246L1104.51 502.304C1120.87 473.967 1129.97 456.696 1131.82 450.491C1133.67 444.286 1130.65 441.183 1122.76 441.183C1114.48 441.183 1107.23 444.751 1100.99 451.887C1094.75 459.023 1082.68 478.104 1064.76 509.129L904.122 787.368C904.1 787.406 904.059 787.43 904.016 787.43L787.641 787.43C787.547 787.43 787.488 787.328 787.535 787.246L1025.1 375.78C1025.12 375.742 1025.16 375.719 1025.2 375.719L1143.59 375.719Z" fill="url(#RadialGradient_3)" fill-rule="nonzero" opacity="1" stroke="none"/>
<path d="M1503.14 285.124C1503.23 285.124 1503.29 285.226 1503.24 285.308L1434.74 403.952C1451.29 391.956 1467.19 383.01 1482.43 377.115C1497.68 371.22 1512.23 368.273 1526.09 368.273C1542.07 368.273 1554.37 370.962 1563.01 376.34C1571.65 381.717 1576.24 389.267 1576.79 398.988C1577.34 408.71 1575.55 418.224 1571.43 427.532C1567.3 436.84 1556.47 456.696 1538.91 487.101L1431.79 672.635C1414.36 702.833 1399.49 725.327 1387.2 740.116C1374.91 754.904 1358.7 767.728 1338.57 778.587C1318.44 789.446 1298.85 794.876 1279.79 794.876C1266.12 794.876 1255.22 791.67 1247.08 785.258C1238.94 778.846 1233.67 769.228 1231.26 756.404L1205.87 787.385C1205.85 787.413 1205.81 787.43 1205.78 787.43L1096.9 787.43C1096.8 787.43 1096.74 787.328 1096.79 787.246L1386.66 285.185C1386.68 285.148 1386.72 285.124 1386.76 285.124L1503.14 285.124ZM1419.03 492.686C1431.33 471.382 1438.11 457.472 1439.37 450.956C1440.63 444.441 1437.6 441.183 1430.28 441.183C1423.16 441.183 1416.9 444.027 1411.5 449.715C1406.1 455.403 1396.77 469.727 1383.51 492.686L1281.05 670.153C1268.27 692.284 1261.3 706.453 1260.12 712.658C1258.95 718.863 1261.92 721.965 1269.04 721.965C1276.36 721.965 1282.97 718.76 1288.89 712.348C1294.8 705.936 1304.81 690.526 1318.9 666.119L1419.03 492.686Z" fill="url(#RadialGradient_4)" fill-rule="nonzero" opacity="1" stroke="none"/>
<path d="M1822.07 520.299L1763.85 621.132C1742.48 658.156 1725.07 685.304 1711.64 702.574C1698.2 719.845 1681.47 735.979 1661.46 750.974C1641.44 765.97 1620.47 777.036 1598.54 784.172C1576.62 791.308 1554.11 794.876 1531 794.876C1505.21 794.876 1485.12 791.825 1470.74 785.723C1456.36 779.622 1447.77 770.417 1444.96 758.11C1442.15 745.804 1443.67 730.911 1449.53 713.433C1455.39 695.956 1468.4 669.739 1488.59 634.783L1549.49 529.296C1571.58 491.031 1592.69 461.143 1612.81 439.632C1632.93 418.121 1656.76 400.85 1684.3 387.819C1711.85 374.788 1741.21 368.273 1772.4 368.273C1798.58 368.273 1818.63 372.461 1832.56 380.838C1846.5 389.215 1854.68 400.126 1857.12 413.57C1859.56 427.015 1858.54 440.873 1854.06 455.145C1849.57 469.417 1838.91 491.135 1822.07 520.299ZM1723.33 489.273C1735.51 468.176 1742.12 454.886 1743.17 449.405C1744.21 443.924 1741.27 441.183 1734.34 441.183C1727.41 441.183 1721.21 443.924 1715.74 449.405C1710.26 454.886 1701.43 468.176 1689.25 489.273L1581.96 675.117C1570.73 694.559 1564.57 707.228 1563.48 713.123C1562.38 719.018 1565.21 721.965 1571.94 721.965C1578.87 721.965 1585 719.277 1590.32 713.899C1595.64 708.521 1603.43 696.938 1613.7 679.15L1723.33 489.273Z" fill="url(#RadialGradient_5)" fill-rule="nonzero" opacity="1" stroke="none"/>
</g>
<path d="M1842.45 794.271C1842.52 794.562 1842.12 794.713 1841.98 794.446L1804.45 721.01C1804.4 720.909 1804.28 720.855 1804.17 720.878L1734.07 735.314C1733.79 735.372 1733.65 734.989 1733.9 734.847L1796.28 699.766C1796.38 699.711 1796.43 699.596 1796.4 699.486L1776.57 619.435C1776.5 619.144 1776.9 618.992 1777.04 619.259L1814.57 692.696C1814.62 692.797 1814.73 692.851 1814.85 692.828L1884.95 678.392C1885.23 678.333 1885.37 678.717 1885.12 678.859L1822.74 713.94C1822.64 713.995 1822.59 714.11 1822.61 714.22L1842.45 794.271Z" fill="#706d6d" fill-opacity="0.867117" fill-rule="nonzero" filter="url(#Filter_2)" opacity="0.976744" stroke="none"/>
</g>
<g id="图层-2"/>
</svg>
